<svg width="40" height="39" viewBox="0 0 40 39" fill="none" xmlns="http://www.w3.org/2000/svg">
<path fill-rule="evenodd" clip-rule="evenodd" d="M39.0129 19.0669C39.0129 29.5676 30.5003 38.0802 19.9995 38.0802C9.49876 38.0802 0.986206 29.5676 0.986206 19.0669C0.986206 8.56609 9.49876 0.0535278 19.9995 0.0535278C30.5003 0.0535278 39.0129 8.56609 39.0129 19.0669ZM24.7529 11.9369C24.7529 14.5621 22.6247 16.6902 19.9995 16.6902C17.3743 16.6902 15.2462 14.5621 15.2462 11.9369C15.2462 9.31167 17.3743 7.18353 19.9995 7.18353C22.6247 7.18353 24.7529 9.31167 24.7529 11.9369ZM19.9994 21.4435C15.2044 21.4435 11.0726 24.2835 9.19458 28.3732C11.8096 31.4066 15.6803 33.3269 19.9995 33.3269C24.3186 33.3269 28.1892 31.4067 30.8042 28.3734C28.9262 24.2836 24.7945 21.4435 19.9994 21.4435Z" fill="#A0A0AF"/>
</svg>
